<svg width="18" height="20" viewBox="0 0 18 20" fill="none" xmlns="http://www.w3.org/2000/svg">
<path d="M17 14.1555V5.84454C17 5.72495 16.9685 5.6075 16.9088 5.50427C16.8491 5.40103 16.7633 5.31571 16.6602 5.25708L9.32684 1.08656C9.22705 1.02981 9.11449 1 9 1C8.88551 1 8.77295 1.02981 8.67316 1.08656L1.33983 5.25708C1.23673 5.31571 1.15091 5.40103 1.09119 5.50427C1.03147 5.6075 1 5.72495 1 5.84454V14.1555C1 14.2751 1.03147 14.3925 1.09119 14.4957C1.15091 14.599 1.23673 14.6843 1.33983 14.7429L8.67316 18.9134C8.77295 18.9702 8.88551 19 9 19C9.11449 19 9.22705 18.9702 9.32684 18.9134L16.6602 14.7429C16.7633 14.6843 16.8491 14.599 16.9088 14.4957C16.9685 14.3925 17 14.2751 17 14.1555Z" stroke="#414141" stroke-width="1.4" stroke-linecap="round" stroke-linejoin="round"/>
<path d="M12.7348 7.95508L5.04688 3.45508" stroke="#414141" stroke-width="1.4" stroke-linecap="round" stroke-linejoin="round"/>
<path d="M16.9075 5.5028L9.07855 9.99963L1.0918 5.50195" stroke="#414141" stroke-width="1.4" stroke-linecap="round" stroke-linejoin="round"/>
<path d="M9.08105 10L9.00195 19" stroke="#414141" stroke-width="1.4" stroke-linecap="round" stroke-linejoin="round"/>
</svg>
