<svg width="22" height="22" viewBox="0 0 22 22" fill="none" xmlns="http://www.w3.org/2000/svg">
<path d="M7.5625 13.75C10.0305 13.75 12.0312 11.7493 12.0312 9.28125C12.0312 6.81323 10.0305 4.8125 7.5625 4.8125C5.09448 4.8125 3.09375 6.81323 3.09375 9.28125C3.09375 11.7493 5.09448 13.75 7.5625 13.75Z" stroke="currentColor" stroke-width="1.4" stroke-miterlimit="10"/>
<path d="M13.3555 4.97901C13.9701 4.80583 14.6147 4.76638 15.2459 4.86331C15.8771 4.96024 16.4801 5.19131 17.0145 5.54094C17.5489 5.89057 18.0021 6.35065 18.3436 6.89019C18.6852 7.42973 18.9072 8.0362 18.9947 8.66876C19.0821 9.30131 19.033 9.94527 18.8506 10.5572C18.6682 11.1692 18.3568 11.735 17.9374 12.2165C17.5179 12.698 17.0001 13.084 16.4189 13.3485C15.8377 13.6131 15.2066 13.75 14.568 13.75" stroke="currentColor" stroke-width="1.4" stroke-linecap="round" stroke-linejoin="round"/>
<path d="M1.375 16.9638C2.07293 15.971 2.99947 15.1608 4.0764 14.6014C5.15333 14.0421 6.34904 13.75 7.56257 13.75C8.7761 13.75 9.97183 14.0419 11.0488 14.6012C12.1258 15.1604 13.0524 15.9706 13.7504 16.9633" stroke="currentColor" stroke-width="1.4" stroke-linecap="round" stroke-linejoin="round"/>
<path d="M14.5684 13.75C15.782 13.7491 16.978 14.0407 18.055 14.6C19.1321 15.1594 20.0585 15.97 20.7559 16.9633" stroke="currentColor" stroke-width="1.4" stroke-linecap="round" stroke-linejoin="round"/>
</svg>
