<svg width="19" height="20" viewBox="0 0 20 22" fill="none" xmlns="http://www.w3.org/2000/svg">
<path d="M19 15.6239V6.37622C19 6.24314 18.9646 6.11246 18.8974 5.99759C18.8302 5.88271 18.7337 5.78778 18.6177 5.72254L10.3677 1.08191C10.2554 1.01877 10.1288 0.985596 10 0.985596C9.8712 0.985596 9.74457 1.01877 9.6323 1.08191L1.3823 5.72254C1.26632 5.78778 1.16978 5.88271 1.10259 5.99759C1.03541 6.11246 1 6.24314 1 6.37622V15.6239C1 15.757 1.03541 15.8877 1.10259 16.0026C1.16978 16.1175 1.26632 16.2124 1.3823 16.2776L9.6323 20.9183C9.74457 20.9814 9.8712 21.0146 10 21.0146C10.1288 21.0146 10.2554 20.9814 10.3677 20.9183L18.6177 16.2776C18.7337 16.2124 18.8302 16.1175 18.8974 16.0026C18.9646 15.8877 19 15.757 19 15.6239Z" stroke="currentColor" stroke-width="1.4" stroke-linecap="round" stroke-linejoin="round"/>
<path d="M14.5958 8.42266L5.5 3.40601" stroke="currentColor" stroke-width="1.4" stroke-linecap="round" stroke-linejoin="round"/>
<path d="M18.8962 5.99605L10.0886 10.9998L1.10352 5.99512" stroke="currentColor" stroke-width="1.4" stroke-linecap="round" stroke-linejoin="round"/>
<path d="M10.088 10.9998L10 21.0143" stroke="currentColor" stroke-width="1.4" stroke-linecap="round" stroke-linejoin="round"/>
</svg>
