<svg width="16" height="19" viewBox="0 0 16 19" fill="none" xmlns="http://www.w3.org/2000/svg">
<path d="M14.459 18H1.70833C1.52047 18 1.3403 17.9254 1.20747 17.7925C1.07463 17.6597 1 17.4795 1 17.2917V1.70833C1 1.52047 1.07463 1.3403 1.20747 1.20747C1.3403 1.07463 1.52047 1 1.70833 1H10.209L15.1674 5.95833V17.2917C15.1674 17.3847 15.149 17.4768 15.1134 17.5627C15.0778 17.6487 15.0257 17.7268 14.9599 17.7925C14.8941 17.8583 14.816 17.9105 14.7301 17.9461C14.6442 17.9817 14.552 18 14.459 18Z" stroke="#414141" stroke-width="1.4" stroke-linecap="round" stroke-linejoin="round"/>
<path d="M10.209 1V5.95833H15.168" stroke="#414141" stroke-width="1.4" stroke-linecap="round" stroke-linejoin="round"/>
<path d="M5.25 10.209H10.9167" stroke="#414141" stroke-width="1.4" stroke-linecap="round" stroke-linejoin="round"/>
<path d="M5.25 13.041H10.9167" stroke="#414141" stroke-width="1.4" stroke-linecap="round" stroke-linejoin="round"/>
</svg>
