<svg width="122" height="37" viewBox="0 0 122 37" fill="none" xmlns="http://www.w3.org/2000/svg">
<rect width="37" height="37" rx="4" fill="#0F8BFF"/>
<path d="M17.6027 12.364V14.83H12.4547V17.494H16.3067V19.888H12.4547V25H9.37674V12.364H17.6027ZM28.3105 12.364V14.83H24.9625V25H21.8845V14.83H18.5365V12.364H28.3105Z" fill="white"/>
<path d="M54.3594 5.625V17H52.0156V5.625H54.3594ZM58.8906 10.4844V12.3125H53.7188V10.4844H58.8906ZM59.4375 5.625V7.46094H53.7188V5.625H59.4375ZM65.1131 15.0938V11.3281C65.1131 11.0573 65.0689 10.8255 64.9803 10.6328C64.8918 10.4349 64.7537 10.2812 64.5662 10.1719C64.384 10.0625 64.147 10.0078 63.8553 10.0078C63.6053 10.0078 63.3892 10.0521 63.2069 10.1406C63.0246 10.224 62.884 10.3464 62.785 10.5078C62.686 10.6641 62.6366 10.849 62.6366 11.0625H60.3866C60.3866 10.7031 60.4699 10.362 60.6366 10.0391C60.8032 9.71615 61.0454 9.43229 61.3631 9.1875C61.6808 8.9375 62.0584 8.74219 62.4959 8.60156C62.9386 8.46094 63.4334 8.39062 63.9803 8.39062C64.6366 8.39062 65.2199 8.5 65.7303 8.71875C66.2407 8.9375 66.6418 9.26562 66.9334 9.70312C67.2303 10.1406 67.3787 10.6875 67.3787 11.3438V14.9609C67.3787 15.4245 67.4074 15.8047 67.4647 16.1016C67.522 16.3932 67.6053 16.6484 67.7147 16.8672V17H65.4412C65.3319 16.7708 65.2485 16.4844 65.1912 16.1406C65.1392 15.7917 65.1131 15.4427 65.1131 15.0938ZM65.41 11.8516L65.4256 13.125H64.1678C63.8709 13.125 63.6131 13.1589 63.3944 13.2266C63.1756 13.2943 62.9959 13.3906 62.8553 13.5156C62.7147 13.6354 62.6105 13.776 62.5428 13.9375C62.4803 14.099 62.4491 14.276 62.4491 14.4688C62.4491 14.6615 62.4933 14.8359 62.5819 14.9922C62.6704 15.1432 62.798 15.263 62.9647 15.3516C63.1314 15.4349 63.3267 15.4766 63.5506 15.4766C63.8892 15.4766 64.1834 15.4089 64.4334 15.2734C64.6834 15.138 64.8761 14.9714 65.0116 14.7734C65.1522 14.5755 65.2251 14.388 65.2303 14.2109L65.8241 15.1641C65.7407 15.3776 65.6261 15.599 65.4803 15.8281C65.3397 16.0573 65.16 16.2734 64.9412 16.4766C64.7225 16.6745 64.4595 16.8385 64.1522 16.9688C63.8449 17.0938 63.4803 17.1562 63.0584 17.1562C62.522 17.1562 62.035 17.0495 61.5975 16.8359C61.1652 16.6172 60.8215 16.3177 60.5662 15.9375C60.3162 15.5521 60.1912 15.1146 60.1912 14.625C60.1912 14.1823 60.2746 13.7891 60.4412 13.4453C60.6079 13.1016 60.8527 12.8125 61.1756 12.5781C61.5037 12.3385 61.9126 12.1589 62.4022 12.0391C62.8918 11.9141 63.4595 11.8516 64.1053 11.8516H65.41ZM72.7653 15.3984C73.0414 15.3984 73.2861 15.3464 73.4997 15.2422C73.7132 15.1328 73.8799 14.9818 73.9997 14.7891C74.1247 14.5911 74.1898 14.3594 74.195 14.0938H76.3122C76.307 14.6875 76.1481 15.2161 75.8356 15.6797C75.5231 16.138 75.1039 16.5 74.5778 16.7656C74.0518 17.026 73.4632 17.1562 72.8122 17.1562C72.1559 17.1562 71.583 17.0469 71.0934 16.8281C70.6091 16.6094 70.2054 16.3073 69.8825 15.9219C69.5596 15.5312 69.3174 15.0781 69.1559 14.5625C68.9945 14.0417 68.9137 13.4844 68.9137 12.8906V12.6641C68.9137 12.0651 68.9945 11.5078 69.1559 10.9922C69.3174 10.4714 69.5596 10.0182 69.8825 9.63281C70.2054 9.24219 70.6091 8.9375 71.0934 8.71875C71.5778 8.5 72.1455 8.39062 72.7966 8.39062C73.4893 8.39062 74.096 8.52344 74.6169 8.78906C75.1429 9.05469 75.5544 9.4349 75.8512 9.92969C76.1533 10.4193 76.307 11 76.3122 11.6719H74.195C74.1898 11.3906 74.1299 11.1354 74.0153 10.9062C73.9059 10.6771 73.7445 10.4948 73.5309 10.3594C73.3226 10.2188 73.0648 10.1484 72.7575 10.1484C72.4294 10.1484 72.1611 10.2188 71.9528 10.3594C71.7445 10.4948 71.583 10.6823 71.4684 10.9219C71.3539 11.1562 71.2731 11.4245 71.2262 11.7266C71.1846 12.0234 71.1637 12.3359 71.1637 12.6641V12.8906C71.1637 13.2188 71.1846 13.5339 71.2262 13.8359C71.2679 14.138 71.346 14.4062 71.4606 14.6406C71.5804 14.875 71.7445 15.0599 71.9528 15.1953C72.1611 15.3307 72.432 15.3984 72.7653 15.3984ZM81.9175 8.54688V10.1406H76.9956V8.54688H81.9175ZM78.2144 6.46094H80.4644V14.4531C80.4644 14.6979 80.4956 14.8854 80.5581 15.0156C80.6258 15.1458 80.7248 15.237 80.855 15.2891C80.9852 15.3359 81.1493 15.3594 81.3472 15.3594C81.4878 15.3594 81.6128 15.3542 81.7222 15.3438C81.8368 15.3281 81.9331 15.3125 82.0112 15.2969L82.0191 16.9531C81.8264 17.0156 81.618 17.0651 81.3941 17.1016C81.1701 17.138 80.9227 17.1562 80.6519 17.1562C80.1571 17.1562 79.7248 17.0755 79.355 16.9141C78.9904 16.7474 78.7092 16.4818 78.5112 16.1172C78.3133 15.7526 78.2144 15.2734 78.2144 14.6797V6.46094ZM88.3587 14.9766V8.54688H90.6087V17H88.4916L88.3587 14.9766ZM88.6087 13.2422L89.2728 13.2266C89.2728 13.7891 89.2077 14.3125 89.0775 14.7969C88.9473 15.276 88.752 15.6927 88.4916 16.0469C88.2311 16.3958 87.903 16.6693 87.5072 16.8672C87.1114 17.0599 86.6452 17.1562 86.1087 17.1562C85.6973 17.1562 85.3171 17.099 84.9681 16.9844C84.6244 16.8646 84.3275 16.6797 84.0775 16.4297C83.8327 16.1745 83.64 15.849 83.4994 15.4531C83.364 15.0521 83.2962 14.5703 83.2962 14.0078V8.54688H85.5462V14.0234C85.5462 14.2734 85.5749 14.4844 85.6322 14.6562C85.6947 14.8281 85.7806 14.9688 85.89 15.0781C85.9994 15.1875 86.127 15.2656 86.2728 15.3125C86.4239 15.3594 86.5905 15.3828 86.7728 15.3828C87.2364 15.3828 87.6009 15.2891 87.8666 15.1016C88.1374 14.9141 88.3275 14.6589 88.4369 14.3359C88.5515 14.0078 88.6087 13.6432 88.6087 13.2422Z" fill="#0D041F"/>
<path d="M97.7141 5.625V17H95.3781V5.625H97.7141ZM101.214 5.625V7.46094H91.9328V5.625H101.214ZM110.343 15.1719V17H104.288V15.1719H110.343ZM105.054 5.625V17H102.71V5.625H105.054ZM109.554 10.2578V12.0391H104.288V10.2578H109.554ZM110.335 5.625V7.46094H104.288V5.625H110.335ZM115.362 17H112.886L112.901 15.1719H115.362C115.977 15.1719 116.495 15.0339 116.917 14.7578C117.339 14.4766 117.656 14.0677 117.87 13.5312C118.089 12.9948 118.198 12.3464 118.198 11.5859V11.0312C118.198 10.4479 118.136 9.9349 118.011 9.49219C117.891 9.04948 117.711 8.67708 117.472 8.375C117.232 8.07292 116.938 7.84635 116.589 7.69531C116.24 7.53906 115.839 7.46094 115.386 7.46094H112.839V5.625H115.386C116.146 5.625 116.841 5.75521 117.472 6.01562C118.107 6.27083 118.656 6.63802 119.12 7.11719C119.584 7.59635 119.94 8.16927 120.19 8.83594C120.446 9.4974 120.573 10.2344 120.573 11.0469V11.5859C120.573 12.3932 120.446 13.1302 120.19 13.7969C119.94 14.4635 119.584 15.0365 119.12 15.5156C118.662 15.9896 118.112 16.3568 117.472 16.6172C116.836 16.8724 116.133 17 115.362 17ZM114.214 5.625V17H111.87V5.625H114.214Z" fill="#0F8BFF"/>
<path d="M54.78 22.783V24.025H53.52V31.63H54.78V32.881H52.08V22.783H54.78ZM55.8849 27.832C55.8849 27.208 56.0199 26.653 56.2899 26.167C56.5599 25.675 56.9349 25.294 57.4149 25.024C57.9009 24.748 58.4499 24.61 59.0619 24.61C59.8119 24.61 60.4539 24.808 60.9879 25.204C61.5219 25.6 61.8789 26.14 62.0589 26.824H60.3669C60.2409 26.56 60.0609 26.359 59.8269 26.221C59.5989 26.083 59.3379 26.014 59.0439 26.014C58.5699 26.014 58.1859 26.179 57.8919 26.509C57.5979 26.839 57.4509 27.28 57.4509 27.832C57.4509 28.384 57.5979 28.825 57.8919 29.155C58.1859 29.485 58.5699 29.65 59.0439 29.65C59.3379 29.65 59.5989 29.581 59.8269 29.443C60.0609 29.305 60.2409 29.104 60.3669 28.84H62.0589C61.8789 29.524 61.5219 30.064 60.9879 30.46C60.4539 30.85 59.8119 31.045 59.0619 31.045C58.4499 31.045 57.9009 30.91 57.4149 30.64C56.9349 30.364 56.5599 29.983 56.2899 29.497C56.0199 29.011 55.8849 28.456 55.8849 27.832ZM65.9894 31.063C65.3954 31.063 64.8494 30.925 64.3514 30.649C63.8594 30.373 63.4664 29.989 63.1724 29.497C62.8844 28.999 62.7404 28.441 62.7404 27.823C62.7404 27.205 62.8844 26.65 63.1724 26.158C63.4664 25.666 63.8594 25.282 64.3514 25.006C64.8494 24.73 65.3954 24.592 65.9894 24.592C66.5834 24.592 67.1264 24.73 67.6184 25.006C68.1164 25.282 68.5064 25.666 68.7884 26.158C69.0764 26.65 69.2204 27.205 69.2204 27.823C69.2204 28.441 69.0764 28.999 68.7884 29.497C68.5004 29.989 68.1104 30.373 67.6184 30.649C67.1264 30.925 66.5834 31.063 65.9894 31.063ZM65.9894 29.659C66.4934 29.659 66.8954 29.491 67.1954 29.155C67.5014 28.819 67.6544 28.375 67.6544 27.823C67.6544 27.265 67.5014 26.821 67.1954 26.491C66.8954 26.155 66.4934 25.987 65.9894 25.987C65.4794 25.987 65.0714 26.152 64.7654 26.482C64.4654 26.812 64.3154 27.259 64.3154 27.823C64.3154 28.381 64.4654 28.828 64.7654 29.164C65.0714 29.494 65.4794 29.659 65.9894 29.659ZM77.2316 24.682V31H75.6926V27.211L74.2796 31H73.0376L71.6156 27.202V31H70.0766V24.682H71.8946L73.6676 29.056L75.4226 24.682H77.2316ZM79.8773 25.915V27.193H81.9383V28.381H79.8773V29.767H82.2083V31H78.3383V24.682H82.2083V25.915H79.8773ZM86.4294 31L85.1154 28.615H84.7464V31H83.2074V24.682H85.7904C86.2884 24.682 86.7114 24.769 87.0594 24.943C87.4134 25.117 87.6774 25.357 87.8514 25.663C88.0254 25.963 88.1124 26.299 88.1124 26.671C88.1124 27.091 87.9924 27.466 87.7524 27.796C87.5184 28.126 87.1704 28.36 86.7084 28.498L88.1664 31H86.4294ZM84.7464 27.526H85.7004C85.9824 27.526 86.1924 27.457 86.3304 27.319C86.4744 27.181 86.5464 26.986 86.5464 26.734C86.5464 26.494 86.4744 26.305 86.3304 26.167C86.1924 26.029 85.9824 25.96 85.7004 25.96H84.7464V27.526ZM88.8175 27.832C88.8175 27.208 88.9525 26.653 89.2225 26.167C89.4925 25.675 89.8675 25.294 90.3475 25.024C90.8335 24.748 91.3825 24.61 91.9945 24.61C92.7445 24.61 93.3865 24.808 93.9205 25.204C94.4545 25.6 94.8115 26.14 94.9915 26.824H93.2995C93.1735 26.56 92.9935 26.359 92.7595 26.221C92.5315 26.083 92.2705 26.014 91.9765 26.014C91.5025 26.014 91.1185 26.179 90.8245 26.509C90.5305 26.839 90.3835 27.28 90.3835 27.832C90.3835 28.384 90.5305 28.825 90.8245 29.155C91.1185 29.485 91.5025 29.65 91.9765 29.65C92.2705 29.65 92.5315 29.581 92.7595 29.443C92.9935 29.305 93.1735 29.104 93.2995 28.84H94.9915C94.8115 29.524 94.4545 30.064 93.9205 30.46C93.3865 30.85 92.7445 31.045 91.9945 31.045C91.3825 31.045 90.8335 30.91 90.3475 30.64C89.8675 30.364 89.4925 29.983 89.2225 29.497C88.9525 29.011 88.8175 28.456 88.8175 27.832ZM97.473 24.682V31H95.934V24.682H97.473ZM102.521 29.884H100.163L99.7853 31H98.1743L100.46 24.682H102.242L104.528 31H102.899L102.521 29.884ZM102.125 28.696L101.342 26.383L100.568 28.696H102.125ZM106.763 29.812H108.779V31H105.224V24.682H106.763V29.812ZM112.465 32.881H109.765V31.63H111.025V24.025H109.765V22.783H112.465V32.881Z" fill="#0F8BFF"/>
</svg>
